<svg version="1.2" xmlns="http://www.w3.org/2000/svg" viewBox="0 0 800 800" width="800" height="800"><style>.a{fill:#fbcf00}.b{fill:#efefef}.c{fill:#1d1d1d}</style><path class="a" d="m-116.4 411v516.4h1032.8v-1032.8h-1032.8z"/><path class="b" d="m721.6 226.8c0 5.1 0.2 6.9 0.5 4 0.3-2.9 0.3-7 0-9.2-0.3-2.2-0.5 0.2-0.5 5.2zm-9.2 161.9c0 5.4 0.2 7.8 0.5 5.3 0.3-2.6 0.3-7 0-9.9-0.3-2.9-0.5-0.8-0.5 4.6zm-2.6 46.5c0 5.1 0.2 6.9 0.5 4 0.3-2.9 0.3-7 0-9.2-0.3-2.2-0.5 0.2-0.5 5.2zm-177.4 334.6c2.5 0.3 6.9 0.3 9.8 0 2.9-0.3 0.8-0.5-4.6-0.5-5.4 0-7.7 0.2-5.2 0.5zm45.2 2.6c3.6 0.3 9.8 0.3 13.8 0 3.9-0.2 1-0.5-6.6-0.5-7.6 0-10.8 0.3-7.2 0.5z"/><path class="c" d="m283.3 25c-3.2 0.9-8.8 2.9-12.4 4.6-3.6 1.6-8.9 4.5-11.8 6.5-2.9 2-8.8 7.1-13.1 11.3-4.3 4.3-9.4 10-11.2 12.7-2.7 4-5.2 5.6-15 9.3-6.5 2.5-16.3 6.1-21.7 8-5.4 1.9-12.7 4.6-16.3 5.9-3.6 1.3-11.9 4.4-18.3 6.8-6.8 2.5-12.3 5.4-13.3 7-0.8 1.4-1.9 6.1-2.3 10.5-0.4 4.3-1.7 14.6-2.8 22.9-1.2 8.3-2.7 19.2-3.4 24.2-0.7 5.1-1.8 13.6-2.5 19.1-0.7 5.4-2.2 16.3-3.3 24.2-1.1 7.9-2.7 18.8-3.4 24.2-0.8 5.5-1.9 13.7-2.5 18.4-0.6 4.7-2.1 15.6-3.3 24.2-1.1 8.7-2.7 20.2-3.4 25.6-0.8 5.4-1.9 13.4-2.5 17.7-0.6 4.3-2 14.7-3.2 22.9-1.2 8.3-2.7 19.5-3.4 24.9-0.7 5.5-1.9 13.7-2.5 18.4-0.7 4.7-1.8 12.9-2.5 18.3-0.8 5.5-2.3 15.8-3.5 23-1.1 7.2-2.6 17.8-3.3 23.6-0.8 5.7-1.9 15.8-2.6 22.3-0.7 6.5-2.2 20.9-3.3 32.1-1.1 11.2-2.5 26.5-3.3 34.1-0.7 7.5-1.8 20.5-2.5 28.8-0.6 8.3-2.4 30.4-3.8 49.1-1.5 18.8-3.3 42.7-4.1 53.1-0.8 10.5-2 24.8-2.7 31.8-0.7 7.1-1.2 15.8-1.2 19.4 0 5.3 0.5 6.8 2.9 8.3 1.6 1 5.9 2.2 9.5 2.6 3.6 0.4 13.6 1.7 22.3 2.8 8.6 1.2 20.3 2.7 25.9 3.4 5.6 0.6 14.7 1.8 20.3 2.5 5.6 0.6 22 2.7 36.4 4.6 20.4 2.6 27 3.9 29.8 5.9 3.3 2.4 3.9 2.5 7.5 0.7 2.2-1.1 4.7-1.7 5.6-1.4 0.9 0.3 13.7 2.2 28.5 4 14.8 1.9 31 4 36.1 4.6 5 0.6 21.2 2.7 36 4.6 14.8 1.9 31.3 4 36.7 4.6 5.4 0.6 16 1.8 23.6 2.6 7.6 0.8 14.8 2 16.1 2.7 1.2 0.6 3.9 0.9 5.9 0.5 1.9-0.4 12.1-0.1 22.6 0.7 10.4 0.8 27.8 2 38.6 2.7 10.8 0.8 31.2 1.9 45.3 2.6 14 0.7 35.2 1.6 47.1 2l21.7 0.8c27.4-14.2 41-21.4 47.8-25 6.9-3.6 17.9-9.4 24.6-12.9 6.6-3.4 12.6-7.4 13.3-8.9 0.8-1.4 2-9.1 2.8-17 0.8-7.9 2-20.3 2.7-27.5 0.7-7.2 1.8-19.3 2.5-26.9 0.6-7.6 2.4-25.9 3.8-40.6 1.5-14.8 3.3-33.7 4.1-42 0.7-8.3 1.9-21 2.6-28.2 0.7-7.2 1.9-20.4 2.7-29.5 0.7-9 1.9-23.7 2.6-32.7 0.7-9 1.8-26.7 2.5-39.4 0.7-12.6 1.9-34.1 2.6-47.8 0.7-13.7 1.9-34.3 2.6-45.9 0.7-11.5 1.9-32.4 2.7-46.5 0.7-14.1 1.9-35 2.6-46.5 0.7-11.6 2.2-38.4 3.3-59.7 1.1-21.2 2.6-45.9 3.3-54.7 0.7-8.8 1-16.8 0.7-17.7-0.4-0.9-2-2.4-3.6-3.3-1.7-0.8-8.3-2.2-14.8-2.9-6.5-0.8-12.8-1.7-14.1-2-1.3-0.4-2.6-2.3-3.1-4.2-0.4-2-1.5-5.4-2.5-7.6-0.9-2.1-4-6-6.7-8.6-2.8-2.6-7.4-5.4-10.3-6.4-3.2-1-8.4-1.5-13.1-1.1-4.3 0.4-10.8 2-14.4 3.5-3.6 1.6-7.9 4.2-9.5 5.8-1.9 1.9-3.7 2.5-4.9 1.9-1.1-0.5-2-2-2.1-3.3 0-1.2-1.6-5.2-3.5-8.8-2-3.6-6.2-9.3-9.5-12.7-4.1-4.1-7.8-6.5-11.8-7.6-3.3-0.9-8.6-1.3-11.8-1-3.3 0.4-8.4 1.9-11.5 3.4-3.1 1.6-8.3 5.3-11.6 8.4l-6 5.5c-9.5-10.9-14.9-15.9-18.1-18.2-5.3-3.6-6.9-4-15.7-4-8.5 0-11.1 0.6-18.4 4.2-4.7 2.3-12.2 7.4-16.7 11.4-4.5 4-8.6 7.3-9.2 7.3-0.5 0-2.6-3.1-4.6-6.9-1.9-3.8-6.1-9.5-9.1-12.6-3.1-3.2-7.8-7.2-10.5-8.9-2.7-1.7-8.3-3.6-12.5-4.2-4.4-0.7-10.5-0.7-14.7-0.1-4 0.7-10.2 2.3-13.8 3.6-3.6 1.3-9.5 4.4-13.1 7-3.6 2.6-7.4 5.7-8.5 6.9-1.1 1.2-2.4 2.2-3 2.1-0.5 0-1.8-1.9-2.8-4.3-1-2.3-3.7-6.7-5.9-9.8-2.2-3.1-6.9-7.3-10.3-9.5-3.4-2.2-9.4-4.6-13.4-5.4-5.3-1-9.1-1-14.1 0-3.8 0.8-10.2 3.1-14.3 5.1-4.1 2-7.6 3-7.9 2.3-0.2-0.8-2.2-4.4-4.4-8.2-2.1-3.8-5.8-8.3-8.1-10-2.4-1.7-6.4-3.8-8.9-4.6-2.5-0.8-6.9-1.4-9.8-1.3-2.9 0.1-7.9 0.9-11.2 1.8z"/><path class="a" d="m288.6 38.3c-1.1 0.3-6.3 2.8-11.6 5.5-5.2 2.6-11 6-12.7 7.4-1.7 1.4-3.2 2.9-3.2 3.3 0 0.3 3.9 1.3 8.8 2.2 4.9 0.9 13.3 2.3 18.7 3.1 5.4 0.8 13.1 1.6 17 1.7l7.2 0.2c-0.5-7.1-1.5-11.7-2.6-14.8-1.1-3-3.3-6.4-4.9-7.5-1.6-1.1-5.6-1.9-8.9-1.9-3.2 0.1-6.7 0.4-7.8 0.8zm58.3 16.9c-2.9 1-7.3 3.6-9.8 5.7-2.5 2.1-4.1 4.3-3.5 4.9 0.6 0.6 5.3 1.5 10.5 2 5.2 0.5 14.2 1.5 20.2 2.3 5.9 0.8 11.4 1.1 12.1 0.8 0.7-0.4-0.4-3.3-2.6-6.6-2.3-3.4-6.1-7-9.2-8.5-2.9-1.5-6.9-2.6-8.8-2.5-2 0-6 0.9-8.9 1.9zm81.3 10.5c-4.3 1.8-9.9 4.9-12.5 6.8l-4.6 3.6c10.2 1.4 18.5 2.4 24.9 3.2 6.5 0.8 15.7 2 20.4 2.7 4.6 0.8 8.9 0.9 9.4 0.4 0.6-0.6-0.5-3.4-2.4-6.3-2-2.9-4.5-6.2-5.6-7.3-1.2-1.2-4-3.1-6.4-4.3-2.3-1.2-6.7-2.2-9.8-2.1-3 0-9.1 1.5-13.4 3.3zm90.4 10.4c-5 2.6-11.2 6.4-13.7 8.6l-4.6 3.9c6.1 0 14.3 0.8 22.3 2 7.9 1.1 16.9 2.4 19.9 2.9 4.8 0.8 5.6 0.6 5.6-1.3 0-1.3-1.2-4.5-2.7-7.3-1.6-2.7-3.8-6-5-7.3-1.1-1.3-3.7-3.3-5.7-4.3-2-1-4.4-1.8-5.3-1.8-0.9 0-5.8 2.1-10.8 4.6zm66.2 5.7c-3.2 2-7.6 6.1-9.8 9.2-2.2 3-3.6 5.6-3.3 5.9 0.4 0.2 8 1.4 17.1 2.6 9 1.2 18.5 2.5 21.3 2.9 4 0.5 4.9 0.2 4.9-1.7 0-1.3-0.8-4.4-1.8-6.9-1.1-2.5-3.2-6.2-4.7-8.2-1.5-2-4.6-4.5-7-5.6-2.3-1.1-5.7-2-7.5-2-1.8 0.1-5.9 1.7-9.2 3.8zm64.2 22.1l-4.5 2c13.2 2.7 19.2 3.5 21.9 3.5 2.9 0.1 4.7-0.4 4.3-1.2-0.4-0.7-3-2.5-5.9-3.9-2.9-1.5-6.6-2.6-8.2-2.6-1.6 0-5 1-7.6 2.2z"/><path fill-rule="evenodd" class="b" d="m259.9 53.8c-1.1 1.6-1 2.1 0.8 2.6 1.3 0.3 4.7 0.9 7.6 1.2 5.2 0.7 5.2 0.7-0.7-0.8-3.2-0.8-6.2-1.7-6.5-2-0.4-0.2 0.2-1 1.3-1.7 1.1-0.7 1.3-1.2 0.4-1.2-0.8 0-2.1 0.8-2.9 1.9zm-8 19.1c-1.8 0.8-5.2 2.5-7.6 3.6-3.3 1.7-5.3 4.4-8.8 12.4-2.5 5.6-4.6 10.7-4.6 11.4 0 0.8 0.5 1.6 1 1.9 0.5 0.3 6 1.2 12.1 2 6.1 0.8 17.9 2.4 26.2 3.4 8.3 1.1 17 2.2 19.4 2.6 4 0.6 4.3 0.4 5.7-4.9 0.8-3.1 3-10.2 4.9-15.8 2.3-6.7 3-10.5 2.1-11.4-0.7-0.7-8-2.2-16.3-3.3-8.3-1.2-18.6-2.4-23-2.7-4.3-0.3-9.3 0.1-11.1 0.8zm69.5 7.5c-1.1 0.2-3.6 4.3-5.5 9.2-1.9 4.8-4.2 11.1-5.1 14-0.9 2.9-1.2 6.3-0.8 7.6 0.6 1.5 2.3 2.3 5.1 2.3 2.4 0 7.8 0.5 12.2 1.2 4.3 0.7 14.9 2.2 23.5 3.4 15.1 2 15.8 2 17.4-0.3 0.9-1.3 1.7-3.4 1.7-4.7 0-1.2 2.3-7.4 5.1-13.7 2.9-6.3 5.1-11.6 4.9-11.7-0.1-0.2-5.2-0.9-11.4-1.8-6.1-0.8-15.2-2-20.3-2.7-5-0.7-12.7-1.7-17-2.2-4.3-0.6-8.8-0.9-9.8-0.6zm-116.7 9.6c-6.1 2.2-12 4.8-13.1 5.8-1.7 1.5-1 1.8 5.2 2.5 4 0.5 9.5 1.1 12.2 1.4 4.6 0.6 5 0.4 6.9-4.3 1.1-2.7 2-5.7 2-6.7 0.1-1-0.4-2-1-2.2-0.6-0.2-6.1 1.4-12.2 3.5zm189.7 4.8c-1.7 2.7-4 7-5.2 9.5-1.2 2.5-3.1 7.2-4.2 10.5-1.1 3.2-1.6 6.2-1.1 6.7 0.6 0.4 6.3 1.5 12.8 2.3 6.5 0.8 21 2.7 32.1 4.2 11.2 1.5 22.7 3 25.6 3.4 3.6 0.5 5.7 0.1 6.7-1.1 0.7-1 3-6.5 5-12.3 2-5.7 4.2-11 4.8-11.8 0.7-0.7 1.3-2.4 1.5-3.9 0.2-2.4-1.2-2.8-18.1-5-10-1.3-22.7-3-28.1-3.7-5.4-0.7-13.1-1.9-17-2.5-4-0.7-8.3-1.3-9.5-1.2-1.3 0-3.7 2.2-5.3 4.9zm95.9 8.4c-1.2 1-4.2 6.7-6.8 12.9-2.6 6.1-5.1 12.6-5.5 14.4l-0.8 3.3c27 3.6 39 5.3 44 6 5.1 0.8 11.6 1.2 14.4 1l5.3-0.5c2.3-13.2 3.6-19.7 4.3-22.9 0.8-3.3 0.9-6.5 0.3-7.2-0.6-0.7-5.1-1.8-10-2.3-5-0.5-15.2-1.8-22.8-2.8-7.5-1-15.2-2.3-17-2.7-1.9-0.5-4.2-0.2-5.4 0.8zm-327.3 7.2c-0.7 1.3-2 7.7-2.8 14.2-0.9 6.5-2.1 15.6-2.7 20.3-0.6 4.7-2 15.6-3.2 24.3-1.2 8.6-2.7 20.3-3.4 25.9-0.7 5.5-1 10.6-0.8 11.1 0.3 0.5 2.5 1.4 5 1.9 2.4 0.6 13.5 1.9 24.7 3 11.2 1 22.1 1.9 24.2 2 3.9 0 4-0.2 6.9-11.5 1.6-6.3 3.3-14.1 3.8-17.4 0.8-5.5 0.6-6-3.3-8.8-2.2-1.6-5.3-5.8-6.7-9.2-1.5-3.4-3-8.3-3.4-10.8-0.6-3.4 0.1-6.3 2.6-11.1 2.2-4.4 3.7-10.4 4.6-17.7 0.7-6.2 1-11.5 0.8-11.8-0.2-0.4-3.8-1.1-8.1-1.6-4.2-0.5-12.7-1.5-18.8-2.3-6.1-0.7-12.7-1.6-14.6-2.1-2.5-0.5-3.8-0.1-4.8 1.6zm402 4.2c-2.3 1.8-3.7 5.1-5.6 13.4-1.3 6.1-2.6 11.8-2.9 12.7-0.3 0.9 0.2 2.1 1.1 2.8 0.9 0.6 9.6 2.2 19.4 3.5 9.7 1.3 20.8 2.4 24.7 2.4l7 0.1c4.8-18.3 6.5-25.2 6.9-27.2 0.6-3 0.2-3.7-2.3-4.2-1.6-0.3-10.6-1.5-20-2.7-9.3-1.1-18.8-2.4-21.1-2.7q-4-0.6-7.2 1.9zm-342 11.7c-1.8 8.9-1.8 9.4 0.7 12 1.4 1.5 3.2 2.7 3.9 2.7 0.8 0 3.4 1.6 5.9 3.7 3.1 2.5 5 5.3 5.6 8.5 0.5 2.7 0.5 7 0 9.7-0.5 2.6-2.5 6.2-4.3 7.9-1.8 1.6-4.7 3.8-6.5 4.7-2.4 1.1-3.4 2.8-3.7 6.1-0.2 2.6-1.5 10.5-3 17.7-1.4 7.2-2.1 13.5-1.6 13.9 0.6 0.5 8.5 1.5 17.5 2.4 9 0.8 20.8 2 26.2 2.7 5.4 0.7 14.1 1.7 19.4 2.3 8.5 0.9 9.8 0.7 10.8-1.3 0.7-1.3 1.8-8.9 2.5-17 0.7-8.2 1.3-15.4 1.4-16.1 0-0.7-2.1-2.3-4.6-3.6-2.5-1.3-5.6-4.2-6.7-6.6-1.3-2.4-2.2-7.8-2.3-12.8-0.2-7.5 0.3-9.3 3.3-13.1 2.8-3.7 3.5-6.2 3.9-14 0.3-5.2-0.1-10-0.8-10.7-0.8-0.7-7.3-2-14.5-2.8-7.2-0.9-16.9-2-21.6-2.6-4.7-0.6-13.2-1.5-19-2.1l-10.5-0.9zm409.5-2.2c-0.8 1.6-3 8.2-4.8 14.8-1.9 6.6-3 12.4-2.5 13 0.5 0.5 6.5 1.8 13.3 2.9 6.9 1 14 1.9 15.8 1.9 1.8 0 10-4.4 18.7-10.2 8.5-5.5 15-10.4 14.6-10.7-0.5-0.4-2.1-1.3-3.7-2-1.5-0.8-3.4-2.7-4.1-4.3-1-2.1-2.8-3.1-7.2-3.6-3.2-0.4-9.4-1.3-13.8-1.9-4.3-0.7-11.7-1.6-16.3-2-7.9-0.7-8.7-0.5-10 2.1zm-326 4.3c-0.5 1.2-0.9 5.2-0.9 9-0.1 6.3 0.4 7.3 5.6 12.8 3.1 3.2 6 7.6 6.5 9.8 0.4 2.2-0.1 6.3-1.1 9.2-1 2.9-3.5 7.5-5.4 10.4-3.2 4.6-3.7 6.7-4.6 19.6-0.5 8-1.2 16.5-1.6 18.8-0.6 3.7-0.3 4.3 2.2 4.8 1.7 0.3 8.3 1.2 14.8 2 6.5 0.8 15.3 2.1 19.6 2.9 4.4 0.8 13.8 2.5 21 4 7.2 1.4 13.4 2.2 13.8 1.7 0.3-0.5 1.3-9.5 2.2-20.1 0.9-10.6 1.9-20.8 2.3-22.8 0.7-3.4 0.4-3.6-3.9-3.6-2.5 0-6.5-0.9-8.8-2-2.4-1.1-5.3-3.8-6.6-5.9-1.2-2.2-2.3-6-2.3-8.5 0-2.5 0.9-6.5 1.9-8.9 1-2.3 2.4-9.1 3-15.1 0.9-9.2 0.7-11.2-0.9-12.1-1.1-0.6-7.9-1.7-15.1-2.5-7.2-0.8-17.5-2-22.9-2.7-5.5-0.6-11.7-1.6-13.9-2-2.9-0.6-4.2-0.3-4.9 1.2zm74.3 8.9c-1.7 0.9-2.2 2.7-2 7.7 0.2 6 0.5 6.6 4.5 8.2 2.3 1 5.8 3.3 7.8 5.3 2.2 2.1 3.9 5.4 4.4 8.4 0.4 2.7 0.9 6.1 1.2 7.5 0.3 1.5-0.7 4.9-2.1 7.6-1.4 2.7-3.3 9.2-4.4 14.4-1 5.2-2.2 16-2.7 23.9-0.7 11.3-0.5 14.8 0.9 16 1.2 1.1 11.5 2.1 32.5 3 17 0.7 33.2 1.3 36.1 1.3h5.2c1.3-32 1.5-42 1.2-42.9-0.3-0.9-1.7-1.6-3.1-1.6-1.5 0-4.6-1-6.9-2.2-2.4-1.2-4.9-2.8-5.7-3.6-0.8-0.8-2.1-2.8-2.9-4.4-0.9-1.6-1.6-4.9-1.6-7.2 0-2.4 1.1-6 2.5-8.2 1.3-2.2 3.7-5.3 5.2-6.9 1.6-1.6 3.7-5.6 4.8-8.8 1.6-4.8 1.6-6.3 0.3-8-0.9-1.1-3.4-2-5.6-1.9-2.1 0-9.8-0.8-17-1.8-7.2-1-18.7-2.6-25.6-3.4-6.8-0.9-15.2-2-18.5-2.5-3.4-0.6-7.2-0.5-8.5 0.1zm305.6 17.8l-21 14.1c-1.4 17.3-2.4 28.8-3.2 36.7-0.7 7.9-1.9 21.8-2.7 30.8-0.8 9-2.6 29.4-4.1 45.2-1.4 15.9-3.1 35.3-3.8 43.3-0.6 7.9-1.8 20.6-2.5 28.1-0.8 7.6-2.6 26.5-4 42-1.4 15.5-3.2 34.4-4 41.9-0.7 7.6-1.9 19.1-2.6 25.6-0.7 6.5-1.9 17.7-2.7 24.9-0.7 7.2-1.9 19-2.6 26.2-0.6 7.2-1.7 18.7-2.4 25.6-0.7 6.8-2.4 23.3-3.9 36.7-1.5 13.3-3.4 29.8-4.1 36.7-0.8 6.8-2 17.4-2.7 23.6-0.7 6.1-2.5 20.6-4 32.1-1.5 11.5-3.2 24.8-3.8 29.5-0.6 4.7-1.7 13.2-2.5 19-0.8 5.8-2.2 15.4-3.1 21.4-0.9 6-1.2 11.1-0.6 11.5 0.5 0.3 2.6-0.6 4.6-2 3.4-2.3 3.7-3.2 5.9-22.6 1.3-11 2.9-25.1 3.6-31.3 0.6-6.1 1.7-17.3 2.5-24.9 0.8-7.5 2.3-22.6 3.4-33.4 1.1-10.8 2.5-24.7 3.2-30.8 0.7-6.1 1.9-17 2.6-24.2 0.7-7.2 2.2-22 3.3-32.8 1.1-10.8 2.6-25.1 3.3-31.8 0.7-6.7 1.9-17.6 2.6-24.2 0.7-6.7 1.8-18.1 2.6-25.3 0.7-7.2 2.3-21.9 3.3-32.7 1.1-10.9 2.6-24.7 3.3-30.8 0.7-6.2 1.8-17.1 2.6-24.3 0.7-7.2 2.2-21.7 3.3-32.1 1.1-10.5 2.5-24.6 3.2-31.5 0.8-6.8 2-18.6 2.7-26.2 0.8-7.5 2.2-22 3.3-32.1 1.1-10.1 2.5-23.7 3.2-30.1 0.7-6.5 2-18.9 2.9-27.6 1.3-11.6 2.3-16.3 4-18 1.3-1.3 3.5-2.3 5-2.3 1.4 0 3.5 0.9 4.6 2 1.7 1.7 2.1 1.7 3.6-0.5 0.9-1.3 2.9-3.1 4.6-3.9 2.4-1.3 3.4-1.1 6.4 1.4 3.3 2.9 3.4 3.3 2.5 12.8-0.5 5.4-1.5 17.5-2.2 26.9-0.6 9.4-1.8 25.3-2.4 35.4-0.7 10.1-2.2 30.1-3.3 44.5-1.2 14.5-2.7 34.8-3.4 45.3-0.7 10.4-1.9 26.6-2.6 36-0.6 9.4-2.1 29.4-3.2 44.6-1.1 15.1-2.6 35.8-3.3 45.9-0.7 10-1.8 26-2.6 35.3-0.7 9.4-2.4 34.2-3.9 55.1-1.4 20.9-3.2 44.8-3.9 53.1-0.8 8.3-2 24.2-2.7 35.4-0.8 11.1-2.2 31.5-3.2 45.2-1 13.7-1.6 25.3-1.3 25.9 0.3 0.5 1.6 0.4 2.8-0.2 1.4-0.7 2.8-3.5 3.4-6.9 0.6-3.1 1.6-11.6 2.2-18.8 0.7-7.2 2.2-21.7 3.3-32.1 1.1-10.5 2.6-25.5 3.3-33.4 0.7-8 1.8-20.7 2.5-28.2 0.7-7.6 2.2-23.2 3.4-34.8 1.1-11.5 2.6-27.4 3.3-35.4 0.6-7.9 1.8-22.3 2.5-32.1 0.7-9.7 1.6-20.6 2-24.2 0.4-3.6 1.3-17.5 2.1-30.8 0.7-13.4 1.9-35.2 2.6-48.5 0.7-13.4 1.9-34.3 2.5-46.6 0.7-12.2 1.9-33.4 2.6-47.1 0.8-13.7 2.3-40.3 3.4-59 1.1-18.8 2.5-44.4 3.2-57 0.6-12.7 1.5-27.6 1.8-33.1 0.7-9 0.5-10.2-1.5-10.1-1.2 0-11.7 6.3-23.2 14zm-214-4c-0.8 2-1.8 5-2.2 6.6-0.5 2 0.7 5.4 3.8 10.5 2.6 4.2 4.6 9.3 4.6 11.5 0 2.1-1.1 5.7-2.4 7.8-2.1 3.4-2.5 7.4-3 28.9l-0.5 24.9c19.3 2.3 32.9 3.6 42.6 4.5 9.7 0.9 21 2.2 24.9 2.8 4 0.7 9.3 1.2 11.8 1.2h4.6c3.6-23.9 5.3-34.6 6-39.3 0.8-4.7 2.9-16.2 4.7-25.6 1.9-9.4 3.8-17.9 4.4-19 0.6-1.1 0.6-2.8-0.1-3.9-0.8-1.4-3.7-2.1-9.1-2.3-7.2-0.3-7.9-0.1-8.4 2.6-0.4 1.6-0.9 5-1.2 7.5-0.3 2.8 0.5 6.9 1.9 10.2 1.4 3.1 2.5 7 2.5 8.8 0 1.8-0.7 4.7-1.6 6.3-0.8 1.6-2.2 3.5-2.9 4.3-0.8 0.7-2.9 2.4-4.7 3.6-2.2 1.5-5.8 2.2-10.8 2.2-6.4 0-8.2-0.5-11.6-3.6-2.2-2-4.6-5.3-5.3-7.5-0.9-2.6-0.8-5.8 0.1-9.5 1-3.9 2.8-6.8 6.3-9.5 2.7-2.2 5.8-4 6.9-4 1.1 0 2.8-0.7 3.7-1.6 0.8-0.9 1.5-4.1 1.5-7.2 0-5-0.3-5.6-3.6-6.2-2-0.4-10.7-1.6-19.3-2.7-8.7-1.1-20.8-2.6-26.9-3.2-6.1-0.7-12.1-1.6-13.2-2-1.4-0.5-2.5 0.4-3.5 2.9zm109.9 13.8c-0.7 1.6-2.4 8.6-3.9 15.4-1.6 6.9-3.4 15.1-4 18.4-0.7 3.2-1.9 10.3-2.7 15.7-0.8 5.4-2.2 15.4-3.2 22.3-0.9 6.8-1.5 13-1.3 13.8 0.3 0.7 6 2.3 12.7 3.7 6.6 1.3 18 3.5 25.2 4.9 7.2 1.4 18.1 3 24.3 3.6 6.1 0.6 11.5 0.9 12.1 0.7 0.5-0.3 1.3-2.7 1.6-5.4 0.4-2.7 1.6-15.2 2.7-27.9 1.1-12.6 2.6-29.7 3.3-38 0.7-8.3 1.4-16 1.6-17.3 0.2-1.2-0.7-2.8-2-3.6-1.3-0.7-7.1-1.8-12.9-2.3-5.8-0.6-11.4-0.6-12.4 0-1.1 0.5-1.9 2.4-1.9 4.2 0 2.3 1.1 3.8 3.5 4.9 1.9 0.9 4.5 3.1 5.8 4.9 1.6 2.2 2.6 6.9 3.1 13.8 0.5 6.3 0.3 11.3-0.5 12.5-1 1.5-4 1.9-12.5 1.9-10.9 0-11.1 0-15.7-4.6-4-3.8-4.7-5.4-4.7-10.1 0-3.5 1.3-7.8 3.3-11.5 2.5-4.5 3.2-7.5 2.9-12.8l-0.3-6.8c-10.1-1.4-15.3-2.2-18-2.6-4.3-0.7-5.1-0.4-6.1 2.2zm-434.5 53.6c-0.4 1-2.3 13.3-4.2 27.4-1.8 14-3.9 29.4-4.5 34-0.7 4.7-1.8 13-2.5 18.4-0.7 5.4-1.7 12.9-2.3 16.7-0.9 5.8-0.7 6.9 0.9 7 1.1 0 10.2 0.6 20.3 1.2 10.1 0.6 21.3 1.6 24.9 2l6.6 0.9c2.6-18 4.5-29.7 5.9-37.6 1.4-8 3.1-16.8 3.8-19.7 0.6-2.9 2.9-13.9 4.9-24.5 2-10.6 3.2-19.7 2.6-20.3-0.6-0.6-11.5-2-24.2-3.2-12.8-1.2-25-2.6-27.3-3.1-2.9-0.7-4.3-0.5-4.9 0.8zm535.6 10c-0.2 4.5-1.2 12.8-2.3 18.3-1.1 5.6-1.9 13.2-2 16.8 0 3.6-0.5 10.1-1.2 14.4-0.7 4.3-2.2 17.3-3.3 28.8-1.2 11.6-2.6 26.3-3.3 32.8-0.7 6.5-1.8 18-2.6 25.5-0.8 7.6-2.3 22.1-3.3 32.2-1.1 10.1-2.6 23.9-3.3 30.8-0.7 6.8-1.9 18-2.6 24.9-0.7 6.8-2.2 21.3-3.3 32.1-1.1 10.8-2.6 25.2-3.3 32.1-0.8 6.8-2 18.3-2.7 25.6-0.7 7.2-1.9 18.1-2.5 24.2-0.7 6.1-2.2 20-3.2 30.8-1.1 10.8-2.6 25.6-3.4 32.8-0.7 7.2-2.2 21.3-3.2 31.4-1.1 10.1-2.6 24.6-3.4 32.1-0.7 7.6-1.9 18.1-2.6 23.3-0.7 5.2-1.2 11.9-1.2 14.8 0 2.8 0.4 5.2 0.9 5.2 0.6-0.1 4.6-2.1 8.9-4.5l7.9-4.4c1.4-17 2.4-30.5 3.1-40.9 0.8-10.5 2.5-35.5 4-55.7 1.4-20.2 3.2-45 4-55.1 0.8-10.1 2-25.7 2.7-34.7 0.7-9 2.1-29.4 3.2-45.2 1.1-15.9 2.5-35.6 3.2-43.9 0.7-8.3 2-24.8 2.7-36.7 0.8-11.9 2.3-32.9 3.3-46.6 1.1-13.7 2.5-33.1 3.2-43.2 0.8-10.1 2-25.5 2.7-34.1 0.7-8.7 1.3-20.3 1.3-25.9 0-5.6 0.6-12.7 1.4-15.7 0.7-3.1 1.1-11.2 0.9-18-0.3-9-0.5-10.2-0.7-4.3zm-467.1-3.7c-0.3 0.8-1.8 7.5-3.4 14.9-1.6 7.3-3.5 15.7-4.2 18.6-0.6 2.9-1.8 8.2-2.6 11.8-0.8 3.6-2.6 13.6-4 22.3-1.4 8.6-3.1 19.6-3.9 24.2-0.9 6.4-0.8 9 0.3 10.3 0.9 0.9 3 1.6 4.9 1.6 1.8 0 9.7 1.1 17.6 2.5 8 1.4 18.9 3.4 24.3 4.5 5.4 1.1 14.8 2.7 21 3.5 6.1 0.8 11.5 1 12 0.4 0.5-0.6 1.5-5.3 2.2-10.3 0.7-5 1.9-15.1 2.7-22.3 0.9-7.2 2.1-17.8 2.9-23.6 0.8-5.7 2.2-16.1 3.2-22.9 1-6.9 2.2-15.7 2.6-19.7 0.5-3.9 0.9-7.5 0.8-7.8 0-0.4-1.7-1.1-3.7-1.6-2.1-0.5-10.2-1.6-18.1-2.4-8-0.8-20.7-2-28.2-2.6-7.6-0.7-16.5-1.6-19.8-2-3.9-0.5-6.3-0.3-6.6 0.6zm85.5 16.8c-0.8 4.9-2.2 15-3.3 22.6-1 7.6-2.5 18.9-3.3 25.2-0.8 6.4-2 16.4-2.7 22.3-0.8 6-1.9 14.7-2.5 19.4-0.7 4.7-0.8 8.9-0.3 9.4 0.4 0.6 5.5 1.6 11.3 2.3 5.8 0.7 17.3 1.9 25.6 2.6 8.3 0.8 20.5 1.4 27.2 1.4 10.6 0 12.1-0.3 12.1-2.3 0-1.3 0.8-10.3 1.9-20 1-9.7 2.5-26.5 3.3-37.3 0.9-10.9 2.1-23.7 2.7-28.6 0.7-4.8 1.3-10 1.3-11.4 0-2-1.3-3-5-3.9-2.7-0.7-7.8-1.9-11.4-2.7-3.6-0.7-10.1-1.9-14.4-2.6-4.4-0.7-14.4-2.2-22.3-3.3-8-1-15.4-1.9-16.6-1.9-1.7 0-2.5 2-3.6 8.8zm83.4 7c-0.4 1-1.4 7.8-2.1 15-0.8 7.2-2.1 21.3-2.9 31.4-0.8 10.1-2.3 25.7-3.3 34.8-1.4 12.8-1.4 16.5-0.2 17.3 0.9 0.5 4.3 1 7.5 1 3.3 0 13 0.9 21.7 2 8.6 1.2 19.2 2.6 23.6 3.3 4.3 0.6 11.4 1.7 15.7 2.4 4.3 0.7 8.3 0.8 8.9 0.4 0.5-0.5 1.5-7.1 2.2-14.6 0.6-7.6 1.9-24.7 2.7-38.1 0.8-13.3 1.5-30.7 1.7-38.6l0.2-14.4c-43.7-1.3-60.5-2.1-65.7-2.7-7.4-0.8-9.5-0.6-10 0.8zm87.6 3.8c-0.4 0.8-1.3 9.5-2 19.4-0.7 9.9-1.9 26.8-2.7 37.6-0.7 10.9-1.5 26.5-1.7 34.7l-0.2 15c9.1 1.7 15.6 2.7 20.3 3.4 4.7 0.6 16.2 2.3 25.5 3.8 9.4 1.4 20.6 2.9 24.9 3.4l7.9 0.9c1.5-9.8 2.5-20.9 3.3-31 0.7-10.1 1.9-24.6 2.6-32.1 0.7-7.6 2-19.4 2.8-26.2 0.8-6.9 1.2-14.6 0.9-17.1l-0.4-4.6c-14.2-1.5-24-2.5-30.8-3.2-6.9-0.8-19-1.9-26.9-2.7-7.9-0.7-16.3-1.6-18.6-2-2.3-0.4-4.5-0.1-4.9 0.7zm93.6 10.4c-0.8 0.5-2 6.2-2.6 12.6-0.7 6.5-2.4 24.4-3.8 39.9-1.4 15.5-2.9 34.6-3.3 42.3-0.4 7.8-0.3 14.1 0.2 14.1 0.6 0 9 1.2 18.7 2.7 13 1.9 22.6 2.5 35.9 2.3 10.1-0.2 19-1 19.8-1.7 1-0.8 2.7-14.1 4.5-34.8 1.7-18.3 3.5-39.3 4.2-46.5 0.6-7.2 1.4-14.1 1.8-15.4 0.4-1.3-0.1-2.8-1-3.5-0.9-0.7-7.5-1.9-14.7-2.7-7.2-0.8-14-1.7-15.1-2.1-1.1-0.4-5.5-1.2-9.8-1.9-4.4-0.7-10.8-1.8-14.4-2.5-3.7-0.7-9.4-1.8-12.8-2.4-3.3-0.7-6.8-0.8-7.6-0.4zm-434.5 71.2c-0.3 0.9-1.2 6.4-2 12.1-0.7 5.8-1.9 14.4-2.5 19-0.7 4.7-2.1 15.1-3.3 23-1.1 7.9-2.4 16.8-2.9 19.6-0.7 4.6-0.4 5.6 2.3 7.5 1.8 1.2 6.7 3.2 11 4.3 4.4 1.2 15 2.9 23.6 3.9 14.2 1.5 15.9 1.5 17.4-0.4 0.8-1.2 1.9-7.8 2.3-14.6 0.4-6.8 1.3-17.8 2-24.2 0.8-6.5 2.3-18.3 3.4-26.3 1.1-7.9 1.8-16.1 1.6-18.3-0.4-3.9-0.6-3.9-11.6-5.5-6.1-0.8-17.8-1.5-25.9-1.6-10.7-0.1-15 0.3-15.4 1.5zm64.1 5.2c-0.6 0.9-1.5 5.2-2 9.6-0.5 4.3-2.1 18.1-3.5 30.8-1.5 12.6-3 28.1-3.4 34.4-0.7 10-0.5 11.6 1.5 12.6 1.3 0.6 5.5 1.5 9.5 2 4 0.5 11.1 1.4 15.7 2.1 4.7 0.6 18.3 2.2 30.2 3.4 11.9 1.3 22.5 2 23.6 1.6 1.4-0.5 2.4-4.7 3.6-16.3 0.9-8.6 2.3-22.4 3.1-30.7 0.7-8.3 1.9-20 2.6-26.2 1-8.7 0.9-11.3-0.4-12-1-0.5-7-1.5-13.5-2.3-6.5-0.9-14.5-2-17.7-2.7-3.2-0.6-9.7-1.8-14.4-2.6-4.7-0.9-11.2-2.1-14.4-2.7-3.3-0.6-9-1.5-12.6-2-4.9-0.6-7-0.3-7.9 1zm92.1 13.8c-0.4 1.3-1.3 8.5-2 16.1-0.8 7.5-2.1 20.5-2.8 28.8-0.8 8.3-2 20.4-2.8 26.9-0.7 6.5-0.9 12.1-0.4 12.4 0.4 0.4 5.6 1.1 11.5 1.6 5.9 0.5 18.1 1.5 27.1 2.4 9 0.8 21.1 1.9 26.9 2.4 5.7 0.5 11.3 0.7 12.4 0.5 1.6-0.3 2.2-4.6 3-24.3 0.6-13.1 1.5-32.4 2.2-42.9 0.6-10.4 1-19.1 0.9-19.3-0.1-0.2-9.9-0.9-21.8-1.6-11.9-0.7-28.4-1.9-36.7-2.7-8.3-0.8-15.5-1.7-15.9-2-0.5-0.3-1.2 0.4-1.6 1.7zm86.4 6.7c-0.4 1.3-1.4 13.9-2.1 27.9-0.8 13.9-1.7 32.5-2.2 41.1l-0.8 15.7c8 1.6 25.6 2.4 44.3 2.9 28.9 0.8 34.3 0.6 35.3-1 0.7-1 1.7-10.1 2.3-20.2 0.6-10.1 1.6-26.9 2.2-37.4 0.6-10.4 0.9-19.6 0.7-20.3-0.3-0.7-5.4-2.1-11.3-3.1-6-1-14.1-2.3-18-2.8-4-0.6-14.9-2-24.3-3.1-9.4-1.2-18.9-2.1-21.2-2.1-3 0-4.4 0.7-4.9 2.4zm91 9.5c-0.2 0.3-1.6 17.6-3.2 38.5-1.6 21-2.4 38.9-1.9 40q0.9 2 9.9 2.9c4.9 0.5 13.1 1.5 18.1 2.3 5.1 0.7 13.9 1.3 19.7 1.3 5.8 0.1 15-0.4 20.5-0.9l10.1-1c1.2-11.2 2.4-25.9 3.5-40 1.1-14 2.3-26.6 2.6-27.8 0.4-1.4-0.3-2.8-1.6-3.5-1.3-0.6-10-2.2-19.4-3.4-9.3-1.2-20.8-2.8-25.5-3.4-4.7-0.7-12.1-1.8-16.4-2.4-4.3-0.7-9.7-1.6-11.9-2.1-2.3-0.5-4.3-0.7-4.5-0.5zm89.6 13.5c-0.2 0.8-0.9 7.1-1.7 13.9-0.7 6.9-2 22-3 33.7-0.9 11.6-1.4 21.5-1 21.9 0.4 0.4 6.8 1.6 14.4 2.7 7.6 1.1 17.3 2.7 21.6 3.5 4.4 0.8 13.5 3.4 20.4 5.9 6.8 2.5 13.6 4.4 15 4.1 2.4-0.3 2.8-2.7 5.7-29.9 1.6-16.2 3.1-34.5 3.3-40.6l0.2-11.1c-31.5 0-45.6-0.8-51.8-1.8-6.1-1-13.7-2.2-16.9-2.8-4-0.7-5.9-0.6-6.2 0.5zm-436 44.2c-0.4 1-1.3 6.2-2.1 11.6-0.7 5.5-2.3 18.4-3.4 28.9-1.2 10.4-2.5 23-3 28-0.7 6.4-0.5 9.7 0.7 11.4 0.9 1.4 5.3 3.6 9.8 5 4.5 1.3 12 3.1 16.7 3.8 4.7 0.8 12.9 1.9 18.2 2.5 6.1 0.7 10.3 0.6 11.4-0.3 0.9-0.7 1.9-3.6 2.3-6.5 0.3-2.9 1.3-9.5 2.1-14.8 0.8-5.2 2-13.7 2.7-19 0.7-5.2 1.3-16.7 1.3-25.5 0-9.5-0.5-16.3-1.3-16.7-0.7-0.4-9.1-1.5-18.7-2.6-9.5-1-20.3-2.8-23.9-3.8-3.6-1.1-7.8-2.3-9.3-2.8-1.9-0.6-3.1-0.3-3.5 0.8zm66.7 11.1c-0.7 0.5-1.1 8.7-1 18.1 0.1 11.5-0.7 23.3-2.5 35.5-1.5 10.1-3.1 20.5-3.6 23.2l-0.9 4.8c13.2 1.1 26.5 2.4 38 3.5 11.5 1.2 24.5 2.6 28.8 3.1 4.4 0.6 8.6 0.9 9.5 0.6 0.9-0.2 1.9-1.8 2.2-3.4 0.3-1.6 1.2-6.5 2-10.8 0.7-4.3 2.2-12.6 3.3-18.3 1-5.8 2.5-15.5 3.4-21.7 0.8-6.1 2.1-14.1 2.8-17.7 0.9-5.1 0.8-6.8-0.6-7.8-1-0.8-7.1-1.8-13.5-2.4-6.4-0.5-17.6-1.6-24.8-2.3-7.2-0.7-16-1.9-19.7-2.5-3.6-0.7-10-1.6-14.4-2-4.3-0.5-8.4-0.4-9 0.1zm92.5 10.5c-0.2 0.7-1.1 7.7-2.2 15.6-1 7.9-2.4 18-3.1 22.3-0.7 4.3-2.3 12.9-3.5 19-1.1 6.1-2.4 13.8-2.8 17l-0.7 5.9c29.2 2.5 47.9 3.5 60.6 3.8 12.6 0.4 23.6 0.2 24.6-0.3 1-0.5 2.3-7.4 3.5-18.5 1-9.8 2.5-26.9 3.3-38.1 0.7-11.1 1.2-20.4 1-20.6-0.2-0.1-8-0.9-17.4-1.6-9.3-0.7-22.9-1.9-30.1-2.7-7.2-0.7-17.6-1.7-23.1-2.1-5.5-0.5-10-0.3-10.1 0.3zm90.7 10.2c-0.2 1.5-1 12.2-1.8 23.8-0.8 11.5-1.9 24.5-2.6 28.8-0.6 4.3-1.3 10.8-1.6 14.4l-0.4 6.6c15.2 1.3 29.1 2.4 40.6 3.2 11.6 0.8 24.8 1.8 29.5 2.2l8.6 0.7c3.6-36.2 5.2-51.5 5.9-57.3 0.7-5.7 1.3-13.2 1.3-16.7 0-3.8-0.7-6.4-1.7-6.8-0.9-0.3-18.6-0.8-39.5-1.1-37.7-0.5-37.8-0.5-38.3 2.2zm89.3 1.7c-0.6 0.5-1 4-0.9 7.9 0.1 3.8-0.3 12.4-1.1 19.1-0.7 6.6-2.1 20.9-3.2 31.8-1.1 10.8-1.6 20.1-1 20.6 0.5 0.5 7.7 2.2 16 3.7 8.3 1.5 18.3 3.2 22.3 3.8 4 0.7 13.6 2.4 21.4 3.8 7.8 1.5 14.9 2.4 15.7 2.1 1-0.4 2.5-9.1 4-23.2 1.3-12.5 2.9-26.8 3.5-31.8 0.6-5.1 1.5-14.9 1.9-22l0.7-12.7c-36.9 0.3-48.3-0.3-57.7-1.8-7.5-1.2-15.3-2.2-17.1-2.2-1.9 0-3.9 0.4-4.5 0.9zm89.3 8c-0.4 2.7-1.1 9-1.5 14.1-0.4 5-1.3 15.3-2 22.9-0.8 7.6-2.3 21.7-3.4 31.5-1.1 9.7-1.5 18-0.9 18.4 0.6 0.4 4.9 1.5 9.6 2.3 4.7 0.9 15.9 2.4 24.9 3.5 9 1 21.2 2.1 27.1 2.3 5.9 0.2 11.2-0.2 11.8-0.8 0.6-0.6 1.5-5.9 2-11.8 0.4-5.9 1.9-20.1 3.2-31.6 1.3-11.6 2.4-25.4 2.4-30.8 0-9.6-0.1-9.9-3.2-10.3-1.8-0.2-8.9-2.4-15.8-4.8-6.8-2.4-16-5-20.3-5.8-4.3-0.7-12.1-2-17.4-2.7-5.2-0.7-10.9-1.3-12.6-1.3-2.6 0-3.3 0.8-3.9 4.9zm-439.2 53.1c-0.4 1.6-1.6 14.1-2.7 27.8-1.1 13.7-2.6 32.6-3.3 42-0.7 9.3-0.9 17.4-0.3 17.9 0.5 0.5 4.5 1.6 8.8 2.4 4.4 0.9 12 2.1 17.1 2.7 5 0.6 12.8 1.1 17.3 1.1 6.8 0.1 8.4-0.3 8.9-2.2 0.3-1.3 1.7-9.1 3.1-17.4 1.4-8.3 3.6-22.7 4.8-32.1 1.2-9.3 2.7-20.6 3.3-24.9 0.6-4.3 0.9-8.3 0.5-8.8-0.3-0.6-5.7-1.6-12-2.3-6.3-0.8-15.6-2.1-20.7-2.9-5-0.8-12.4-2.6-16.4-3.9-3.9-1.3-7.3-2.4-7.5-2.4-0.1 0-0.6 1.3-0.9 3zm66.3 20.3c-0.9 6.3-2.8 20.6-4.2 31.8-1.5 11.1-3.1 22.9-3.7 26.2-0.6 3.2-1.5 8.4-2 11.4-0.7 5.1-0.5 5.7 2.2 6.2 1.6 0.4 9.7 1.9 18 3.3 8.3 1.5 18.3 3.3 22.3 4 3.9 0.7 11.8 1.9 17.4 2.6 5.5 0.7 10.8 1 11.7 0.7 1-0.4 3-8.1 4.8-18.7 1.7-9.9 3.6-21 4.2-24.6 0.6-3.6 1.6-9.5 2.3-13.1 0.7-3.6 2.2-12.5 3.4-19.7 1.3-7.2 1.8-13.5 1.2-14.1-0.6-0.5-5.8-1.5-11.6-2.2-5.8-0.8-19.6-2.2-30.8-3.3-11.2-1.1-23.3-2-27-2h-6.6zm89.1-1.3c-0.7 1.2-2.8 11.7-4.8 23.3-2 11.5-4.1 23.6-4.7 26.8-0.5 3.3-1.6 9.9-2.4 14.8-0.7 4.8-1.9 11.3-2.6 14.4-0.7 3.1-1.3 6.3-1.4 7.2 0 1.1 3 1.9 8.9 2.3 4.8 0.4 14.4 1.3 21.3 2 6.8 0.8 16.8 2 22.2 2.8 5.5 0.7 14.9 2.2 21 3.3 6.1 1 11.9 1.6 12.8 1.2 0.9-0.5 1.6-2.1 1.6-3.7 0-1.7 1.3-10.1 2.7-18.7 1.5-8.7 3.2-19 3.9-23 0.6-3.9 2.7-16 4.5-26.8 1.8-10.8 3.3-20.7 3.4-22 0-2-1.7-2.3-17.4-2.3-9.6 0-25.9-0.6-36.4-1.3-10.4-0.7-21.8-1.6-25.1-2-5.1-0.5-6.4-0.2-7.5 1.7zm97.9 3c-0.2 0.8-2.4 11.6-4.8 24-2.3 12.3-4.8 25.4-5.3 29-0.6 3.6-2.4 14.5-4 24.3-1.6 9.7-2.6 18.3-2.3 19 0.3 0.7 10.8 2 23.4 2.9 12.5 0.9 30.9 1.7 40.8 1.7 13 0 18.2-0.5 18.9-1.7 0.4-0.9 1.3-5.1 1.8-9.5 0.5-4.3 2.2-17.6 3.7-29.5 1.5-11.9 3.3-26.3 4.1-32.1 0.7-5.7 1.3-13.3 1.3-16.7v-6.2c-8.6-1-15.9-1.8-21.6-2.5-5.8-0.7-19.7-1.7-30.8-2.1-11.2-0.5-21.3-1.1-22.5-1.5-1.2-0.3-2.4 0.1-2.7 0.9zm89.2 7.9c-0.9 0.5-2.1 5.8-2.6 11.9-0.6 6-1.7 16.3-2.4 22.7-0.7 6.5-2.3 18.9-3.4 27.6-1.1 8.6-2.5 19.3-3 23.7l-0.9 8.1c6.1 1.1 14.4 2.4 22.3 3.5 7.9 1.1 18.3 2.6 23 3.3 4.6 0.7 14.1 2.1 20.9 3.2 6.9 1 13 1.5 13.5 1 0.6-0.5 1.9-11.2 2.9-23.8 1-12.6 2.6-30.3 3.4-39.4 0.9-9 1.7-19.3 1.7-22.9 0.2-6.4 0.1-6.5-4.4-7.3-2.6-0.5-9.9-1.8-16.4-3.1-6.5-1.2-15.1-2.7-19-3.4-4-0.8-13.3-2.4-20.6-3.7-7.4-1.3-14.2-1.9-15-1.4zm86.3 15.8c-0.3 1-1.2 7.7-2 14.9-0.8 7.2-2.4 26.7-3.7 43.3-1.2 16.5-1.8 31.1-1.3 32.4 0.5 1.5 3.2 2.7 7.7 3.6 3.8 0.6 10.4 1.8 14.8 2.6 4.3 0.7 16.9 2.1 27.9 3 17.6 1.4 20.2 1.4 21.3-0.3 0.6-1.1 1.2-4.5 1.2-7.6 0-3 0.6-9.5 1.3-14.4 0.7-4.9 2.2-17.1 3.3-27.2 1.2-10.1 2.8-23.1 3.6-28.8 0.8-5.8 1-11.6 0.6-12.8-0.8-1.9-3.1-2.4-13.7-3-7-0.4-21.6-1.9-32.4-3.4-10.8-1.4-21.5-3-23.8-3.4-2.8-0.4-4.3-0.1-4.8 1.1zm-438.5 72.1c-0.9 10.4-2.5 29.2-3.4 41.8-1 12.6-1.5 23.6-1.3 24.5 0.4 1 4 2 9.4 2.4 4.9 0.4 11.7 1.3 15.1 2 3.4 0.7 8.6 1.2 11.4 1.2 3.1 0 5.5-0.7 5.8-1.6 0.3-0.9 1.2-7.6 2.1-14.8 0.8-7.2 3.3-21.6 5.5-32.1 2.2-10.4 4.4-21.1 5-23.6 0.6-2.5 1.5-6.4 2.2-8.7l1.1-4.2c-14.2-1.2-23.4-2.2-29.5-3-6.1-0.8-13.5-1.7-16.4-2.1l-5.2-0.6zm62.2-10.5c-0.4 1-1.6 5.6-2.7 10.3-1.1 4.7-3.2 14.2-4.6 21-1.4 6.9-3.1 16-3.9 20.3-0.8 4.3-2 12.6-2.8 18.4-0.8 5.7-1.1 11.3-0.7 12.4 0.5 1.5 5.4 2.6 18.1 4.3 9.5 1.3 22.3 3 28.5 3.7 6.1 0.8 14.7 1.9 19 2.6 4.3 0.7 8.9 1.2 10.1 1.2 1.3 0 2.6-1 3-2.3 0.3-1.2 1.2-8.5 1.9-16 0.7-7.6 2.8-23.8 4.7-36.1 2-12.2 3.6-24 3.7-26.1l0.2-3.9c-25.4-3.5-39-5.7-46.6-7.3-7.5-1.5-16.7-3.1-20.4-3.5-5.1-0.6-6.9-0.4-7.5 1zm85.1 12c-0.3 0.9-1.1 5.4-1.9 10.1-0.8 4.7-2.3 14.2-3.4 21-1 6.9-2.5 16.9-3.2 22.3-0.8 5.4-1.5 14.1-1.8 19.4-0.2 7.5 0.1 9.8 1.6 10.7 1.1 0.5 5.5 1.4 9.9 1.9 4.3 0.4 11.7 1.4 16.4 2 4.6 0.7 13.5 1.9 19.6 2.6 6.1 0.8 18.2 2.3 26.9 3.4 8.6 1.2 16.2 1.6 16.7 1 0.6-0.6 1.3-5.8 1.6-11.5 0.3-5.8 1.3-20.8 2.2-33.4 0.9-12.7 1.7-27.1 1.7-32.1l0.1-9.2c-9.2-1.3-18-2.7-25.6-3.9-7.6-1.2-20.5-3-28.8-4-8.3-1.1-18.8-1.9-23.3-1.9q-8.2-0.1-8.7 1.6zm97.1 13c-0.4 1.6-1.6 16.6-2.8 33.2-1.1 16.6-2.1 34.4-2.3 39.7-0.2 5.3 0.2 10.1 0.9 10.7 0.7 0.6 4.6 1.4 8.5 1.8 4 0.4 12 1.4 17.7 2.1 5.8 0.8 18.5 2.2 28.2 3.2 9.8 1 18.3 1.4 19 0.8 0.7-0.6 1.7-7.2 2.2-14.6 0.5-7.5 2.7-21.8 4.8-31.9 2.1-10.1 4.6-23.7 5.4-30.2 0.9-6.5 1.3-12.5 0.8-13.4-0.5-1.2-9.2-1.8-33.8-2.3-18.2-0.4-36.4-1-40.5-1.5-7-0.7-7.4-0.5-8.1 2.4zm92.2 11.2c-0.8 4.9-2.4 13.9-3.5 20-1 6.1-2.4 13.5-3.1 16.4-0.6 2.9-1.6 8.8-2.3 13.2-0.6 4.4-1.4 13.6-1.7 20.4l-0.6 12.3c14.2 1.4 27.2 2.4 38 3.1 10.8 0.8 25.1 1.8 31.6 2.4 11.3 1 12 0.9 12.8-1.6 0.5-1.4 1.4-7 2.1-12.4 0.7-5.5 2.2-14.9 3.3-21 1.2-6.1 2.8-15.3 3.4-20.3 0.7-5.1 1.6-13.6 2.1-19 0.5-5.6 0.4-10.3-0.3-10.8-0.7-0.5-9.2-2.1-18.9-3.6-9.8-1.5-21.8-3.3-26.9-3.9-5-0.7-13-1.9-17.7-2.6-4.7-0.8-10.4-1.4-12.6-1.4-4.1 0-4.2 0.1-5.7 8.8zm92.6 6.1c-0.5 1.2-0.9 4.5-0.9 7.4 0 2.8-0.6 9.5-1.4 14.7-0.8 5.2-2.8 18.1-4.5 28.5-1.7 10.5-3.4 21.8-3.8 25.2-0.7 5.7-0.5 6.3 2.2 6.8 1.6 0.3 13.5 1.2 26.5 2 13 0.8 27.6 1.4 32.5 1.4 7.1 0 9-0.5 10-2.3 0.6-1.3 1.8-6.4 2.7-11.5 0.8-5 2-12.7 2.6-17 0.7-4.3 2.1-14.9 3.3-23.6 1.1-8.6 2.4-17.6 2.7-20l0.6-4.2c-10.6-0.9-22.3-2.1-32.7-3.3-10.5-1.1-22.3-2.6-26.3-3.3-3.9-0.6-8.4-1.6-9.9-2q-2.6-0.8-3.6 1.2z"/></svg>